# xmcd CD database file
#
# Track frame offsets:
#	150
#	22404
#	51303
#	87467
#	107939
#	146838
#	175269
#	206821
#	221885
#
# Disc length: 3090 seconds
#
# Revision: 0
# Processed by: cddbd v1.5.2PL0 Copyright (c) Steve Scherf et al.
# Submitted via: CDex 1.51
#
DISCID=970c1009
DTITLE=Maurizio Giammarco - Saurian Lexicon 
DYEAR=2002
DGENRE=Jazz
TTITLE0=01 Pow Line
TTITLE1=02 Fairplanes
TTITLE2=03 Roots
TTITLE3=04 Dreaming Apart
TTITLE4=05 Sconclusione
TTITLE5=06 Pages
TTITLE6=07 Running Loose
TTITLE7=08 Deep
TTITLE8=09 Deep Pow
EXTD=YEAR: 2002
EXTT0=
EXTT1=
EXTT2=
EXTT3=
EXTT4=
EXTT5=
EXTT6=
EXTT7=
EXTT8=
PLAYORDER=
